{
  "accessors": [
    {
      "bufferView": 2,
      "componentType": 5126,
      "count": 65534,
      "max": [
        8.555891036987305,
        -7.747043609619141,
        9.155841827392578
      ],
      "min": [
        -5.668386459350586,
        -25.39031982421875,
        -6.48246955871582
      ],
      "type": "VEC3"
    },
    {
      "bufferView": 2,
      "byteOffset": 786408,
      "componentType": 5126,
      "count": 65534,
      "max": [
        0.9999914169311523,
        0.9999604821205139,
        0.9999540448188782
      ],
      "min": [
        -0.9999181032180786,
        -0.9999664425849915,
        -0.9999788403511047
      ],
      "type": "VEC3"
    },
    {
      "bufferView": 3,
      "componentType": 5126,
      "count": 65534,
      "max": [
        0.9254902005195618,
        0.7686274647712708,
        0.5058823823928833,
        1.0
      ],
      "min": [
        0.0,
        0.0,
        0.0,
        1.0
      ],
      "type": "VEC4"
    },
    {
      "bufferView": 1,
      "componentType": 5126,
      "count": 65534,
      "max": [
        0.9997559785842896,
        0.9909669756889343
      ],
      "min": [
        0.00024399999529123306,
        0.00024399999529123306
      ],
      "type": "VEC2"
    },
    {
      "bufferView": 0,
      "componentType": 5125,
      "count": 232794,
      "type": "SCALAR"
    },
    {
      "bufferView": 2,
      "byteOffset": 1572816,
      "componentType": 5126,
      "count": 65532,
      "max": [
        8.436037063598633,
        -9.209552764892578,
        5.622206687927246
      ],
      "min": [
        -1.6428661346435547,
        -28.275390625,
        -6.6787614822387695
      ],
      "type": "VEC3"
    },
    {
      "bufferView": 2,
      "byteOffset": 2359200,
      "componentType": 5126,
      "count": 65532,
      "max": [
        0.9999862313270569,
        0.9999407529830933,
        0.9999552965164185
      ],
      "min": [
        -0.9998927712440491,
        -0.999990701675415,
        -0.9999521970748901
      ],
      "type": "VEC3"
    },
    {
      "bufferView": 3,
      "byteOffset": 1048544,
      "componentType": 5126,
      "count": 65532,
      "max": [
        0.9960784316062927,
        0.9019607901573181,
        0.7333333492279053,
        1.0
      ],
      "min": [
        0.04313725605607033,
        0.01568627543747425,
        0.0,
        1.0
      ],
      "type": "VEC4"
    },
    {
      "bufferView": 1,
      "byteOffset": 524272,
      "componentType": 5126,
      "count": 65532,
      "max": [
        0.9997559785842896,
        0.9938960075378418
      ],
      "min": [
        0.00024399999529123306,
        0.00024399999529123306
      ],
      "type": "VEC2"
    },
    {
      "bufferView": 0,
      "byteOffset": 931176,
      "componentType": 5125,
      "count": 200523,
      "type": "SCALAR"
    },
    {
      "bufferView": 2,
      "byteOffset": 3145584,
      "componentType": 5126,
      "count": 65532,
      "max": [
        7.189391613006592,
        -9.03750228881836,
        11.911443710327148
      ],
      "min": [
        -10.99087905883789,
        -27.634416580200195,
        -4.799440383911133
      ],
      "type": "VEC3"
    },
    {
      "bufferView": 2,
      "byteOffset": 3931968,
      "componentType": 5126,
      "count": 65532,
      "max": [
        0.9999557137489319,
        0.9997122883796692,
        0.9999552965164185
      ],
      "min": [
        -0.9999866485595703,
        -0.9999738335609436,
        -0.9998322129249573
      ],
      "type": "VEC3"
    },
    {
      "bufferView": 3,
      "byteOffset": 2097056,
      "componentType": 5126,
      "count": 65532,
      "max": [
        0.9215686321258545,
        0.8274509906768799,
        0.6392157077789307,
        1.0
      ],
      "min": [
        0.07450980693101883,
        0.0313725508749485,
        0.0,
        1.0
      ],
      "type": "VEC4"
    },
    {
      "bufferView": 1,
      "byteOffset": 1048528,
      "componentType": 5126,
      "count": 65532,
      "max": [
        0.9997559785842896,
        0.9841110110282898
      ],
      "min": [
        0.00024399999529123306,
        0.00024399999529123306
      ],
      "type": "VEC2"
    },
    {
      "bufferView": 0,
      "byteOffset": 1733268,
      "componentType": 5125,
      "count": 223542,
      "type": "SCALAR"
    },
    {
      "bufferView": 2,
      "byteOffset": 4718352,
      "componentType": 5126,
      "count": 65532,
      "max": [
        7.755080223083496,
        -3.7659645080566406,
        12.02933120727539
      ],
      "min": [
        -11.358613014221191,
        -28.32765007019043,
        -6.913325309753418
      ],
      "type": "VEC3"
    },
    {
      "bufferView": 2,
      "byteOffset": 5504736,
      "componentType": 5126,
      "count": 65532,
      "max": [
        0.9999558329582214,
        0.999027669429779,
        0.9999927878379822
      ],
      "min": [
        -0.9999685883522034,
        -0.9999520778656006,
        -0.9999710321426392
      ],
      "type": "VEC3"
    },
    {
      "bufferView": 3,
      "byteOffset": 3145568,
      "componentType": 5126,
      "count": 65532,
      "max": [
        0.9137254953384399,
        0.800000011920929,
        0.529411792755127,
        1.0
      ],
      "min": [
        0.0313725508749485,
        0.0,
        0.0,
        1.0
      ],
      "type": "VEC4"
    },
    {
      "bufferView": 1,
      "byteOffset": 1572784,
      "componentType": 5126,
      "count": 65532,
      "max": [
        0.9997559785842896,
        0.9909669756889343
      ],
      "min": [
        0.00024399999529123306,
        0.00024399999529123306
      ],
      "type": "VEC2"
    },
    {
      "bufferView": 0,
      "byteOffset": 2627436,
      "componentType": 5125,
      "count": 245073,
      "type": "SCALAR"
    },
    {
      "bufferView": 2,
      "byteOffset": 6291120,
      "componentType": 5126,
      "count": 65532,
      "max": [
        4.682149887084961,
        -3.8505306243896484,
        2.9328699111938477
      ],
      "min": [
        -10.848036766052246,
        -26.931758880615234,
        -8.697977066040039
      ],
      "type": "VEC3"
    },
    {
      "bufferView": 2,
      "byteOffset": 7077504,
      "componentType": 5126,
      "count": 65532,
      "max": [
        0.9999548196792603,
        0.9998190402984619,
        0.999004065990448
      ],
      "min": [
        -0.9999393820762634,
        -0.9998963475227356,
        -0.9999995231628418
      ],
      "type": "VEC3"
    },
    {
      "bufferView": 3,
      "byteOffset": 4194080,
      "componentType": 5126,
      "count": 65532,
      "max": [
        0.9098039269447327,
        0.7882353067398071,
        0.529411792755127,
        1.0
      ],
      "min": [
        0.003921568859368563,
        0.0,
        0.0,
        1.0
      ],
      "type": "VEC4"
    },
    {
      "bufferView": 1,
      "byteOffset": 2097040,
      "componentType": 5126,
      "count": 65532,
      "max": [
        0.9997559785842896,
        0.9763180017471313
      ],
      "min": [
        0.00024399999529123306,
        0.00024399999529123306
      ],
      "type": "VEC2"
    },
    {
      "bufferView": 0,
      "byteOffset": 3607728,
      "componentType": 5125,
      "count": 252744,
      "type": "SCALAR"
    },
    {
      "bufferView": 2,
      "byteOffset": 7863888,
      "componentType": 5126,
      "count": 65532,
      "max": [
        8.555891036987305,
        -2.5475997924804688,
        9.52140998840332
      ],
      "min": [
        -11.28007984161377,
        -21.2481689453125,
        -8.697977066040039
      ],
      "type": "VEC3"
    },
    {
      "bufferView": 2,
      "byteOffset": 8650272,
      "componentType": 5126,
      "count": 65532,
      "max": [
        0.9999750256538391,
        1.0,
        0.9997443556785583
      ],
      "min": [
        -0.9999725818634033,
        -1.0,
        -0.9999995231628418
      ],
      "type": "VEC3"
    },
    {
      "bufferView": 3,
      "byteOffset": 5242592,
      "componentType": 5126,
      "count": 65532,
      "max": [
        0.8980392217636108,
        0.7490196228027344,
        0.529411792755127,
        1.0
      ],
      "min": [
        0.003921568859368563,
        0.0,
        0.0,
        1.0
      ],
      "type": "VEC4"
    },
    {
      "bufferView": 1,
      "byteOffset": 2621296,
      "componentType": 5126,
      "count": 65532,
      "max": [
        0.9997559785842896,
        0.9782710075378418
      ],
      "min": [
        0.00024399999529123306,
        0.00024399999529123306
      ],
      "type": "VEC2"
    },
    {
      "bufferView": 0,
      "byteOffset": 4618704,
      "componentType": 5125,
      "count": 178200,
      "type": "SCALAR"
    },
    {
      "bufferView": 2,
      "byteOffset": 9436656,
      "componentType": 5126,
      "count": 60240,
      "max": [
        0.7217638492584229,
        -4.300615310668945,
        10.933090209960938
      ],
      "min": [
        -11.358613014221191,
        -28.25957489013672,
        -5.606027603149414
      ],
      "type": "VEC3"
    },
    {
      "bufferView": 2,
      "byteOffset": 10159536,
      "componentType": 5126,
      "count": 60240,
      "max": [
        0.9997822046279907,
        0.9999481439590454,
        0.9999386072158813
      ],
      "min": [
        -0.9999725818634033,
        -0.999896764755249,
        -0.9999945759773254
      ],
      "type": "VEC3"
    },
    {
      "bufferView": 3,
      "byteOffset": 6291104,
      "componentType": 5126,
      "count": 60240,
      "max": [
        0.9490196108818054,
        0.8352941274642944,
        0.686274528503418,
        1.0
      ],
      "min": [
        0.08235294371843338,
        0.019607843831181526,
        0.0,
        1.0
      ],
      "type": "VEC4"
    },
    {
      "bufferView": 1,
      "byteOffset": 3145552,
      "componentType": 5126,
      "count": 60240,
      "max": [
        0.9997559785842896,
        0.9821779727935791
      ],
      "min": [
        0.00024399999529123306,
        0.00024399999529123306
      ],
      "type": "VEC2"
    },
    {
      "bufferView": 0,
      "byteOffset": 5331504,
      "componentType": 5125,
      "count": 167121,
      "type": "SCALAR"
    }
  ],
  "asset": {
    "extras": {
      "author": "Geoffrey Marchal (https://sketchfab.com/geoffreymarchal)",
      "license": "CC-BY-NC-4.0 (http://creativecommons.org/licenses/by-nc/4.0/)",
      "source": "https://sketchfab.com/3d-models/human-skull-d0a00f07771f43c09cbce84de4748425",
      "title": "Human Skull"
    },
    "generator": "Sketchfab-12.68.0",
    "version": "2.0"
  },
  "bufferViews": [
    {
      "buffer": 0,
      "byteLength": 5999988,
      "name": "floatBufferViews",
      "target": 34963
    },
    {
      "buffer": 0,
      "byteLength": 3627472,
      "byteOffset": 5999988,
      "byteStride": 8,
      "name": "floatBufferViews",
      "target": 34962
    },
    {
      "buffer": 0,
      "byteLength": 10882416,
      "byteOffset": 9627460,
      "byteStride": 12,
      "name": "floatBufferViews",
      "target": 34962
    },
    {
      "buffer": 0,
      "byteLength": 7254944,
      "byteOffset": 20509876,
      "byteStride": 16,
      "name": "floatBufferViews",
      "target": 34962
    }
  ],
  "buffers": [
    {
      "byteLength": 27764820,
      "uri": "scene.bin"
    }
  ],
  "images": [
    {
      "uri": "textures/crane_-_LowPoly_Material_u1_v1_baseColor.jpeg"
    }
  ],
  "materials": [
    {
      "doubleSided": true,
      "name": "crane_-_LowPoly_Material_u1_v1",
      "pbrMetallicRoughness": {
        "baseColorTexture": {
          "index": 0
        },
        "metallicFactor": 0.0
      }
    }
  ],
  "meshes": [
    {
      "name": "Object_0",
      "primitives": [
        {
          "attributes": {
            "COLOR_0": 2,
            "NORMAL": 1,
            "POSITION": 0,
            "TEXCOORD_0": 3
          },
          "indices": 4,
          "material": 0,
          "mode": 4
        }
      ]
    },
    {
      "name": "Object_1",
      "primitives": [
        {
          "attributes": {
            "COLOR_0": 7,
            "NORMAL": 6,
            "POSITION": 5,
            "TEXCOORD_0": 8
          },
          "indices": 9,
          "material": 0,
          "mode": 4
        }
      ]
    },
    {
      "name": "Object_2",
      "primitives": [
        {
          "attributes": {
            "COLOR_0": 12,
            "NORMAL": 11,
            "POSITION": 10,
            "TEXCOORD_0": 13
          },
          "indices": 14,
          "material": 0,
          "mode": 4
        }
      ]
    },
    {
      "name": "Object_3",
      "primitives": [
        {
          "attributes": {
            "COLOR_0": 17,
            "NORMAL": 16,
            "POSITION": 15,
            "TEXCOORD_0": 18
          },
          "indices": 19,
          "material": 0,
          "mode": 4
        }
      ]
    },
    {
      "name": "Object_4",
      "primitives": [
        {
          "attributes": {
            "COLOR_0": 22,
            "NORMAL": 21,
            "POSITION": 20,
            "TEXCOORD_0": 23
          },
          "indices": 24,
          "material": 0,
          "mode": 4
        }
      ]
    },
    {
      "name": "Object_5",
      "primitives": [
        {
          "attributes": {
            "COLOR_0": 27,
            "NORMAL": 26,
            "POSITION": 25,
            "TEXCOORD_0": 28
          },
          "indices": 29,
          "material": 0,
          "mode": 4
        }
      ]
    },
    {
      "name": "Object_6",
      "primitives": [
        {
          "attributes": {
            "COLOR_0": 32,
            "NORMAL": 31,
            "POSITION": 30,
            "TEXCOORD_0": 33
          },
          "indices": 34,
          "material": 0,
          "mode": 4
        }
      ]
    }
  ],
  "nodes": [
    {
      "children": [
        1
      ],
      "matrix": [
        0.9532950520515442,
        -0.3004928231239319,
        -0.030539056286215848,
        0.0,
        1.734723475976807e-18,
        0.10110908001661323,
        -0.9948753714561462,
        0.0,
        0.3020406663417816,
        0.9484097361564636,
        0.09638678282499334,
        0.0,
        -0.5685534477233887,
        1.2257267236709595,
        -0.12423278391361209,
        1.0
      ],
      "name": "Sketchfab_model"
    },
    {
      "children": [
        2,
        3,
        4,
        5,
        6,
        7,
        8
      ],
      "name": "crane_-_LowPoly.obj.cleaner.materialmerger.gles"
    },
    {
      "mesh": 0,
      "name": "Object_2"
    },
    {
      "mesh": 1,
      "name": "Object_3"
    },
    {
      "mesh": 2,
      "name": "Object_4"
    },
    {
      "mesh": 3,
      "name": "Object_5"
    },
    {
      "mesh": 4,
      "name": "Object_6"
    },
    {
      "mesh": 5,
      "name": "Object_7"
    },
    {
      "mesh": 6,
      "name": "Object_8"
    }
  ],
  "samplers": [
    {
      "magFilter": 9729,
      "minFilter": 9987,
      "wrapS": 10497,
      "wrapT": 10497
    }
  ],
  "scene": 0,
  "scenes": [
    {
      "name": "Sketchfab_Scene",
      "nodes": [
        0
      ]
    }
  ],
  "textures": [
    {
      "sampler": 0,
      "source": 0
    }
  ]
}
