{
  "accessors": [
    {
      "bufferView": 2,
      "componentType": 5126,
      "count": 65532,
      "max": [
        81.85116577148438,
        62.601226806640625,
        -29.62803077697754
      ],
      "min": [
        27.203670501708984,
        20.961076736450195,
        -180.53756713867188
      ],
      "type": "VEC3"
    },
    {
      "bufferView": 2,
      "byteOffset": 786384,
      "componentType": 5126,
      "count": 65532,
      "max": [
        0.9999396800994873,
        0.9999939203262329,
        0.9999563694000244
      ],
      "min": [
        -0.9999974966049194,
        -0.9999930262565613,
        -0.9999632239341736
      ],
      "type": "VEC3"
    },
    {
      "bufferView": 3,
      "componentType": 5126,
      "count": 65532,
      "max": [
        1.0,
        1.0,
        0.9176470637321472,
        1.0
      ],
      "min": [
        0.2705882489681244,
        0.26274511218070984,
        0.22745098173618317,
        1.0
      ],
      "type": "VEC4"
    },
    {
      "bufferView": 1,
      "componentType": 5126,
      "count": 65532,
      "max": [
        0.9833300113677979,
        0.9745100140571594
      ],
      "min": [
        0.5291200280189514,
        0.002859999891370535
      ],
      "type": "VEC2"
    },
    {
      "bufferView": 0,
      "componentType": 5125,
      "count": 359427,
      "type": "SCALAR"
    },
    {
      "bufferView": 2,
      "byteOffset": 1572768,
      "componentType": 5126,
      "count": 65532,
      "max": [
        80.38359069824219,
        54.81177520751953,
        -30.89766502380371
      ],
      "min": [
        20.93523597717285,
        -14.49399185180664,
        -188.15138244628906
      ],
      "type": "VEC3"
    },
    {
      "bufferView": 2,
      "byteOffset": 2359152,
      "componentType": 5126,
      "count": 65532,
      "max": [
        0.9999932646751404,
        0.9999911189079285,
        0.9999857544898987
      ],
      "min": [
        -0.9999615550041199,
        -0.9999748468399048,
        -0.9999440908432007
      ],
      "type": "VEC3"
    },
    {
      "bufferView": 3,
      "byteOffset": 1048512,
      "componentType": 5126,
      "count": 65532,
      "max": [
        1.0,
        1.0,
        0.9215686321258545,
        1.0
      ],
      "min": [
        0.24313725531101227,
        0.26274511218070984,
        0.24313725531101227,
        1.0
      ],
      "type": "VEC4"
    },
    {
      "bufferView": 1,
      "byteOffset": 524256,
      "componentType": 5126,
      "count": 65532,
      "max": [
        0.9781399965286255,
        0.9388200044631958
      ],
      "min": [
        0.002859999891370535,
        0.009530000388622284
      ],
      "type": "VEC2"
    },
    {
      "bufferView": 0,
      "byteOffset": 1437708,
      "componentType": 5125,
      "count": 342402,
      "type": "SCALAR"
    },
    {
      "bufferView": 2,
      "byteOffset": 3145536,
      "componentType": 5126,
      "count": 65532,
      "max": [
        74.142822265625,
        47.79500961303711,
        39.11257553100586
      ],
      "min": [
        -33.910518646240234,
        -25.532211303710938,
        -183.6134033203125
      ],
      "type": "VEC3"
    },
    {
      "bufferView": 2,
      "byteOffset": 3931920,
      "componentType": 5126,
      "count": 65532,
      "max": [
        0.9999439716339111,
        0.9998816251754761,
        0.9999892115592957
      ],
      "min": [
        -0.9996533393859863,
        -0.999984085559845,
        -0.9998534917831421
      ],
      "type": "VEC3"
    },
    {
      "bufferView": 3,
      "byteOffset": 2097024,
      "componentType": 5126,
      "count": 65532,
      "max": [
        1.0,
        1.0,
        0.9921568632125854,
        1.0
      ],
      "min": [
        0.364705890417099,
        0.3450980484485626,
        0.24705882370471954,
        1.0
      ],
      "type": "VEC4"
    },
    {
      "bufferView": 1,
      "byteOffset": 1048512,
      "componentType": 5126,
      "count": 65532,
      "max": [
        0.9656100273132324,
        0.9317100048065186
      ],
      "min": [
        0.17642000317573547,
        0.08488000184297562
      ],
      "type": "VEC2"
    },
    {
      "bufferView": 0,
      "byteOffset": 2807316,
      "componentType": 5125,
      "count": 335448,
      "type": "SCALAR"
    },
    {
      "bufferView": 2,
      "byteOffset": 4718304,
      "componentType": 5126,
      "count": 65532,
      "max": [
        46.614990234375,
        27.964733123779297,
        38.807857513427734
      ],
      "min": [
        -33.7678108215332,
        -9.651029586791992,
        -148.83274841308594
      ],
      "type": "VEC3"
    },
    {
      "bufferView": 2,
      "byteOffset": 5504688,
      "componentType": 5126,
      "count": 65532,
      "max": [
        0.9999983310699463,
        0.9999542236328125,
        0.9999982714653015
      ],
      "min": [
        -0.9999568462371826,
        -0.9999993443489075,
        -0.9999997019767761
      ],
      "type": "VEC3"
    },
    {
      "bufferView": 3,
      "byteOffset": 3145536,
      "componentType": 5126,
      "count": 65532,
      "max": [
        1.0,
        1.0,
        1.0,
        1.0
      ],
      "min": [
        0.23137255012989044,
        0.239215686917305,
        0.19607843458652496,
        1.0
      ],
      "type": "VEC4"
    },
    {
      "bufferView": 1,
      "byteOffset": 1572768,
      "componentType": 5126,
      "count": 65532,
      "max": [
        0.9118199944496155,
        0.9252899885177612
      ],
      "min": [
        0.07374999672174454,
        0.10034999996423721
      ],
      "type": "VEC2"
    },
    {
      "bufferView": 0,
      "byteOffset": 4149108,
      "componentType": 5125,
      "count": 350190,
      "type": "SCALAR"
    },
    {
      "bufferView": 2,
      "byteOffset": 6291072,
      "componentType": 5126,
      "count": 65532,
      "max": [
        80.82456970214844,
        36.34815216064453,
        16.871347427368164
      ],
      "min": [
        -12.452366828918457,
        -43.00377655029297,
        -66.94245910644531
      ],
      "type": "VEC3"
    },
    {
      "bufferView": 2,
      "byteOffset": 7077456,
      "componentType": 5126,
      "count": 65532,
      "max": [
        0.9999248385429382,
        0.999974250793457,
        0.999988317489624
      ],
      "min": [
        -0.9999682307243347,
        -0.9998369812965393,
        -0.9999573826789856
      ],
      "type": "VEC3"
    },
    {
      "bufferView": 3,
      "byteOffset": 4194048,
      "componentType": 5126,
      "count": 65532,
      "max": [
        1.0,
        1.0,
        0.9098039269447327,
        1.0
      ],
      "min": [
        0.4588235318660736,
        0.40784314274787903,
        0.2666666805744171,
        1.0
      ],
      "type": "VEC4"
    },
    {
      "bufferView": 1,
      "byteOffset": 2097024,
      "componentType": 5126,
      "count": 65532,
      "max": [
        0.9251099824905396,
        0.9340199828147888
      ],
      "min": [
        0.19160999357700348,
        0.06061000004410744
      ],
      "type": "VEC2"
    },
    {
      "bufferView": 0,
      "byteOffset": 5549868,
      "componentType": 5125,
      "count": 345834,
      "type": "SCALAR"
    },
    {
      "bufferView": 2,
      "byteOffset": 7863840,
      "componentType": 5126,
      "count": 65532,
      "max": [
        82.3694839477539,
        18.73065757751465,
        27.43474769592285
      ],
      "min": [
        -34.665889739990234,
        -43.18649673461914,
        -143.1748809814453
      ],
      "type": "VEC3"
    },
    {
      "bufferView": 2,
      "byteOffset": 8650224,
      "componentType": 5126,
      "count": 65532,
      "max": [
        0.9999297857284546,
        0.9998090863227844,
        0.9998985528945923
      ],
      "min": [
        -0.9998323917388916,
        -0.999994695186615,
        -0.9998736381530762
      ],
      "type": "VEC3"
    },
    {
      "bufferView": 3,
      "byteOffset": 5242560,
      "componentType": 5126,
      "count": 65532,
      "max": [
        1.0,
        1.0,
        0.9647058844566345,
        1.0
      ],
      "min": [
        0.250980406999588,
        0.21176470816135406,
        0.20392157137393951,
        1.0
      ],
      "type": "VEC4"
    },
    {
      "bufferView": 1,
      "byteOffset": 2621280,
      "componentType": 5126,
      "count": 65532,
      "max": [
        0.9751899838447571,
        0.9837499856948853
      ],
      "min": [
        0.08199000358581543,
        0.10718999803066254
      ],
      "type": "VEC2"
    },
    {
      "bufferView": 0,
      "byteOffset": 6933204,
      "componentType": 5125,
      "count": 325887,
      "type": "SCALAR"
    },
    {
      "bufferView": 2,
      "byteOffset": 9436608,
      "componentType": 5126,
      "count": 65532,
      "max": [
        85.8643569946289,
        7.583449363708496,
        27.39228057861328
      ],
      "min": [
        -34.645973205566406,
        -41.11977767944336,
        -135.6305694580078
      ],
      "type": "VEC3"
    },
    {
      "bufferView": 2,
      "byteOffset": 10222992,
      "componentType": 5126,
      "count": 65532,
      "max": [
        0.9999828934669495,
        0.9999053478240967,
        0.9999488592147827
      ],
      "min": [
        -0.9999205470085144,
        -0.9999737739562988,
        -0.9999963045120239
      ],
      "type": "VEC3"
    },
    {
      "bufferView": 3,
      "byteOffset": 6291072,
      "componentType": 5126,
      "count": 65532,
      "max": [
        1.0,
        1.0,
        0.9921568632125854,
        1.0
      ],
      "min": [
        0.25882354378700256,
        0.2235294133424759,
        0.2078431397676468,
        1.0
      ],
      "type": "VEC4"
    },
    {
      "bufferView": 1,
      "byteOffset": 3145536,
      "componentType": 5126,
      "count": 65532,
      "max": [
        0.9549999833106995,
        0.9827600121498108
      ],
      "min": [
        0.13796000182628632,
        0.23378999531269073
      ],
      "type": "VEC2"
    },
    {
      "bufferView": 0,
      "byteOffset": 8236752,
      "componentType": 5125,
      "count": 325425,
      "type": "SCALAR"
    },
    {
      "bufferView": 2,
      "byteOffset": 11009376,
      "componentType": 5126,
      "count": 65532,
      "max": [
        86.38871765136719,
        18.36874008178711,
        27.380855560302734
      ],
      "min": [
        -30.784460067749023,
        -43.1733512878418,
        -78.35580444335938
      ],
      "type": "VEC3"
    },
    {
      "bufferView": 2,
      "byteOffset": 11795760,
      "componentType": 5126,
      "count": 65532,
      "max": [
        0.9999945163726807,
        0.9867358803749084,
        0.9999892115592957
      ],
      "min": [
        -0.9997580051422119,
        -0.9999504685401917,
        -0.9999545812606812
      ],
      "type": "VEC3"
    },
    {
      "bufferView": 3,
      "byteOffset": 7339584,
      "componentType": 5126,
      "count": 65532,
      "max": [
        1.0,
        1.0,
        0.9647058844566345,
        1.0
      ],
      "min": [
        0.3450980484485626,
        0.2705882489681244,
        0.19607843458652496,
        1.0
      ],
      "type": "VEC4"
    },
    {
      "bufferView": 1,
      "byteOffset": 3669792,
      "componentType": 5126,
      "count": 65532,
      "max": [
        0.9769300222396851,
        0.9971299767494202
      ],
      "min": [
        0.14372000098228455,
        0.37935999035835266
      ],
      "type": "VEC2"
    },
    {
      "bufferView": 0,
      "byteOffset": 9538452,
      "componentType": 5125,
      "count": 316860,
      "type": "SCALAR"
    },
    {
      "bufferView": 2,
      "byteOffset": 12582144,
      "componentType": 5126,
      "count": 65532,
      "max": [
        63.73323059082031,
        33.238712310791016,
        36.16004180908203
      ],
      "min": [
        -32.81756591796875,
        11.001153945922852,
        -164.6121826171875
      ],
      "type": "VEC3"
    },
    {
      "bufferView": 2,
      "byteOffset": 13368528,
      "componentType": 5126,
      "count": 65532,
      "max": [
        0.9999918341636658,
        0.9999853372573853,
        0.9999668002128601
      ],
      "min": [
        -0.9999178647994995,
        -0.9995906352996826,
        -0.9999814629554749
      ],
      "type": "VEC3"
    },
    {
      "bufferView": 3,
      "byteOffset": 8388096,
      "componentType": 5126,
      "count": 65532,
      "max": [
        1.0,
        1.0,
        0.9686274528503418,
        1.0
      ],
      "min": [
        0.23137255012989044,
        0.239215686917305,
        0.19607843458652496,
        1.0
      ],
      "type": "VEC4"
    },
    {
      "bufferView": 1,
      "byteOffset": 4194048,
      "componentType": 5126,
      "count": 65532,
      "max": [
        0.9415299892425537,
        0.9317499995231628
      ],
      "min": [
        0.008919999934732914,
        0.05155999958515167
      ],
      "type": "VEC2"
    },
    {
      "bufferView": 0,
      "byteOffset": 10805892,
      "componentType": 5125,
      "count": 337566,
      "type": "SCALAR"
    },
    {
      "bufferView": 2,
      "byteOffset": 14154912,
      "componentType": 5126,
      "count": 65532,
      "max": [
        66.84332275390625,
        36.70466613769531,
        39.20026397705078
      ],
      "min": [
        -31.015918731689453,
        15.441065788269043,
        -189.7645263671875
      ],
      "type": "VEC3"
    },
    {
      "bufferView": 2,
      "byteOffset": 14941296,
      "componentType": 5126,
      "count": 65532,
      "max": [
        0.9999918341636658,
        0.9999853372573853,
        0.9999939203262329
      ],
      "min": [
        -0.9998456239700317,
        -0.9992229342460632,
        -0.9999774098396301
      ],
      "type": "VEC3"
    },
    {
      "bufferView": 3,
      "byteOffset": 9436608,
      "componentType": 5126,
      "count": 65532,
      "max": [
        1.0,
        1.0,
        1.0,
        1.0
      ],
      "min": [
        0.4745098054409027,
        0.37254902720451355,
        0.24313725531101227,
        1.0
      ],
      "type": "VEC4"
    },
    {
      "bufferView": 1,
      "byteOffset": 4718304,
      "componentType": 5126,
      "count": 65532,
      "max": [
        0.9397000074386597,
        0.9092599749565125
      ],
      "min": [
        0.0031999999191612005,
        0.016939999535679817
      ],
      "type": "VEC2"
    },
    {
      "bufferView": 0,
      "byteOffset": 12156156,
      "componentType": 5125,
      "count": 335793,
      "type": "SCALAR"
    },
    {
      "bufferView": 2,
      "byteOffset": 15727680,
      "componentType": 5126,
      "count": 51676,
      "max": [
        77.99968719482422,
        44.48054885864258,
        37.44258499145508
      ],
      "min": [
        -19.281761169433594,
        25.52421760559082,
        -189.88137817382813
      ],
      "type": "VEC3"
    },
    {
      "bufferView": 2,
      "byteOffset": 16347792,
      "componentType": 5126,
      "count": 51676,
      "max": [
        0.99997478723526,
        0.9999863505363464,
        0.9999082088470459
      ],
      "min": [
        -0.9994551539421082,
        -0.9999629855155945,
        -0.9999774098396301
      ],
      "type": "VEC3"
    },
    {
      "bufferView": 3,
      "byteOffset": 10485120,
      "componentType": 5126,
      "count": 51676,
      "max": [
        1.0,
        1.0,
        1.0,
        1.0
      ],
      "min": [
        0.24313725531101227,
        0.26274511218070984,
        0.24313725531101227,
        1.0
      ],
      "type": "VEC4"
    },
    {
      "bufferView": 1,
      "byteOffset": 5242560,
      "componentType": 5126,
      "count": 51676,
      "max": [
        0.9466000199317932,
        0.8468499779701233
      ],
      "min": [
        0.0052200001664459705,
        0.019600000232458115
      ],
      "type": "VEC2"
    },
    {
      "bufferView": 0,
      "byteOffset": 13499328,
      "componentType": 5125,
      "count": 250080,
      "type": "SCALAR"
    }
  ],
  "asset": {
    "extras": {
      "author": "IRevans (https://sketchfab.com/IRevans)",
      "license": "CC-BY-4.0 (http://creativecommons.org/licenses/by/4.0/)",
      "source": "https://sketchfab.com/3d-models/right-foot-bones-e80b6eb57bdb4eeea749fc23409e8022",
      "title": "Right Foot Bones"
    },
    "generator": "Sketchfab-12.66.0",
    "version": "2.0"
  },
  "bufferViews": [
    {
      "buffer": 0,
      "byteLength": 14499648,
      "name": "floatBufferViews",
      "target": 34963
    },
    {
      "buffer": 0,
      "byteLength": 5655968,
      "byteOffset": 14499648,
      "byteStride": 8,
      "name": "floatBufferViews",
      "target": 34962
    },
    {
      "buffer": 0,
      "byteLength": 16967904,
      "byteOffset": 20155616,
      "byteStride": 12,
      "name": "floatBufferViews",
      "target": 34962
    },
    {
      "buffer": 0,
      "byteLength": 11311936,
      "byteOffset": 37123520,
      "byteStride": 16,
      "name": "floatBufferViews",
      "target": 34962
    }
  ],
  "buffers": [
    {
      "byteLength": 48435456,
      "uri": "scene.bin"
    }
  ],
  "materials": [
    {
      "doubleSided": true,
      "name": "defaultMat",
      "pbrMetallicRoughness": {
        "metallicFactor": 0.0,
        "roughnessFactor": 0.6
      }
    }
  ],
  "meshes": [
    {
      "name": "Object_0",
      "primitives": [
        {
          "attributes": {
            "COLOR_0": 2,
            "NORMAL": 1,
            "POSITION": 0,
            "TEXCOORD_0": 3
          },
          "indices": 4,
          "material": 0,
          "mode": 4
        }
      ]
    },
    {
      "name": "Object_1",
      "primitives": [
        {
          "attributes": {
            "COLOR_0": 7,
            "NORMAL": 6,
            "POSITION": 5,
            "TEXCOORD_0": 8
          },
          "indices": 9,
          "material": 0,
          "mode": 4
        }
      ]
    },
    {
      "name": "Object_2",
      "primitives": [
        {
          "attributes": {
            "COLOR_0": 12,
            "NORMAL": 11,
            "POSITION": 10,
            "TEXCOORD_0": 13
          },
          "indices": 14,
          "material": 0,
          "mode": 4
        }
      ]
    },
    {
      "name": "Object_3",
      "primitives": [
        {
          "attributes": {
            "COLOR_0": 17,
            "NORMAL": 16,
            "POSITION": 15,
            "TEXCOORD_0": 18
          },
          "indices": 19,
          "material": 0,
          "mode": 4
        }
      ]
    },
    {
      "name": "Object_4",
      "primitives": [
        {
          "attributes": {
            "COLOR_0": 22,
            "NORMAL": 21,
            "POSITION": 20,
            "TEXCOORD_0": 23
          },
          "indices": 24,
          "material": 0,
          "mode": 4
        }
      ]
    },
    {
      "name": "Object_5",
      "primitives": [
        {
          "attributes": {
            "COLOR_0": 27,
            "NORMAL": 26,
            "POSITION": 25,
            "TEXCOORD_0": 28
          },
          "indices": 29,
          "material": 0,
          "mode": 4
        }
      ]
    },
    {
      "name": "Object_6",
      "primitives": [
        {
          "attributes": {
            "COLOR_0": 32,
            "NORMAL": 31,
            "POSITION": 30,
            "TEXCOORD_0": 33
          },
          "indices": 34,
          "material": 0,
          "mode": 4
        }
      ]
    },
    {
      "name": "Object_7",
      "primitives": [
        {
          "attributes": {
            "COLOR_0": 37,
            "NORMAL": 36,
            "POSITION": 35,
            "TEXCOORD_0": 38
          },
          "indices": 39,
          "material": 0,
          "mode": 4
        }
      ]
    },
    {
      "name": "Object_8",
      "primitives": [
        {
          "attributes": {
            "COLOR_0": 42,
            "NORMAL": 41,
            "POSITION": 40,
            "TEXCOORD_0": 43
          },
          "indices": 44,
          "material": 0,
          "mode": 4
        }
      ]
    },
    {
      "name": "Object_9",
      "primitives": [
        {
          "attributes": {
            "COLOR_0": 47,
            "NORMAL": 46,
            "POSITION": 45,
            "TEXCOORD_0": 48
          },
          "indices": 49,
          "material": 0,
          "mode": 4
        }
      ]
    },
    {
      "name": "Object_10",
      "primitives": [
        {
          "attributes": {
            "COLOR_0": 52,
            "NORMAL": 51,
            "POSITION": 50,
            "TEXCOORD_0": 53
          },
          "indices": 54,
          "material": 0,
          "mode": 4
        }
      ]
    }
  ],
  "nodes": [
    {
      "children": [
        1
      ],
      "matrix": [
        -0.3532191514968872,
        -0.8813800215721129,
        -0.3136965632438662,
        0.0,
        -0.9059029221534729,
        0.23849754035472862,
        0.3499411046504975,
        0.0,
        -0.2336152344942093,
        0.40778452157974265,
        -0.8826866149902343,
        0.0,
        26.189489364624023,
        -24.139009475707994,
        -71.493408203125,
        1.0
      ],
      "name": "Sketchfab_model"
    },
    {
      "children": [
        2,
        3,
        4,
        5,
        6,
        7,
        8,
        9,
        10,
        11,
        12
      ],
      "name": "texture_footz_tib_1.OBJ.cleaner.materialmerger.gles"
    },
    {
      "mesh": 0,
      "name": "Object_2"
    },
    {
      "mesh": 1,
      "name": "Object_3"
    },
    {
      "mesh": 2,
      "name": "Object_4"
    },
    {
      "mesh": 3,
      "name": "Object_5"
    },
    {
      "mesh": 4,
      "name": "Object_6"
    },
    {
      "mesh": 5,
      "name": "Object_7"
    },
    {
      "mesh": 6,
      "name": "Object_8"
    },
    {
      "mesh": 7,
      "name": "Object_9"
    },
    {
      "mesh": 8,
      "name": "Object_10"
    },
    {
      "mesh": 9,
      "name": "Object_11"
    },
    {
      "mesh": 10,
      "name": "Object_12"
    }
  ],
  "scene": 0,
  "scenes": [
    {
      "name": "Sketchfab_Scene",
      "nodes": [
        0
      ]
    }
  ]
}
